<?xml version="1.0" encoding="utf-8"?>
<!-- Generator: Adobe Illustrator 21.0.0, SVG Export Plug-In . SVG Version: 6.00 Build 0)  -->
<svg version="1.1" id="Layer_1" xmlns="http://www.w3.org/2000/svg" xmlns:xlink="http://www.w3.org/1999/xlink" x="0px" y="0px"
	 viewBox="0 0 296.1 97.1" style="enable-background:new 0 0 296.1 97.1;" xml:space="preserve">
<style type="text/css">
	.st0{fill:#333333;}
	.st1{fill:#21A79C;}
</style>
<g>
	<g>
		<path class="st0" d="M52.6,84.7l1.1-0.8c1.4-0.8,2.3-1.2,2.9-1.2c1.3,0,2.6,1.1,4.1,3.4c0.9,1.4,1.3,2.5,1.3,3.4
			c0,0.8-0.3,1.6-0.8,2.1c-0.5,0.6-1.2,1.1-1.9,1.5c-0.7,0.4-1.4,0.9-2.1,1.3c-0.7,0.4-2,0.9-4.1,1.6c-2.1,0.6-4.1,1-6,1
			c-1.9,0-3.9-0.3-5.8-0.8c-2-0.5-4-1.4-6.1-2.5c-2.1-1.2-3.9-2.6-5.6-4.4c-1.7-1.7-3-3.9-4.1-6.6c-1.1-2.7-1.6-5.6-1.6-8.8
			c0-3.2,0.5-6,1.6-8.6c1-2.6,2.4-4.7,4-6.4c1.6-1.7,3.5-3.1,5.6-4.2c4-2.2,7.9-3.3,11.9-3.3c1.9,0,3.8,0.3,5.8,0.9
			c2,0.6,3.4,1.2,4.5,1.8l1.5,0.8c0.7,0.4,1.3,0.8,1.7,1.1C61.5,57,62,58,62,59c0,1.1-0.4,2.2-1.3,3.4c-1.6,2.2-3,3.3-4.2,3.3
			c-0.7,0-1.8-0.4-3.1-1.3c-1.7-1.4-4-2.1-6.8-2.1c-2.6,0-5.2,0.9-7.8,2.7c-1.2,0.9-2.2,2.1-3,3.8c-0.8,1.6-1.2,3.4-1.2,5.5
			c0,2,0.4,3.9,1.2,5.5c0.8,1.6,1.8,2.9,3.1,3.8c2.5,1.8,5,2.7,7.7,2.7c1.3,0,2.4-0.2,3.5-0.5C51.3,85.4,52.1,85.1,52.6,84.7z"/>
		<path class="st0" d="M82.5,51.4c6,0,11.2,2.2,15.6,6.5c4.4,4.3,6.6,9.7,6.6,16.1c0,6.4-2.1,11.9-6.3,16.4
			c-4.2,4.5-9.4,6.8-15.5,6.8c-6.1,0-11.4-2.2-15.7-6.7c-4.3-4.4-6.5-9.7-6.5-15.9c0-3.4,0.6-6.5,1.8-9.4c1.2-2.9,2.8-5.4,4.8-7.4
			c2-2,4.3-3.5,7-4.7C77,52,79.7,51.4,82.5,51.4z M71.5,74.3c0,3.6,1.2,6.5,3.5,8.8c2.3,2.2,4.9,3.4,7.8,3.4c2.9,0,5.5-1.1,7.8-3.3
			c2.3-2.2,3.5-5.1,3.5-8.8c0-3.7-1.2-6.6-3.5-8.8c-2.3-2.2-4.9-3.3-7.8-3.3c-2.9,0-5.5,1.1-7.8,3.4C72.6,67.8,71.5,70.7,71.5,74.3z
			"/>
		<path class="st0" d="M174.4,54.3c-0.2-0.6-0.4-1-0.8-1.3c-0.3-0.3-0.9-0.5-1.6-0.7c-0.7-0.2-1.6-0.3-2.8-0.3s-2.1,0.1-2.9,0.4
			c-0.8,0.2-1.3,0.7-1.7,1.4c-0.4,0.7-0.6,1.8-0.6,3.4v20.5c-2.9-3.7-8.6-11.4-17.1-23c-0.2-0.3-0.4-0.5-0.6-0.7
			c-0.2-0.4-0.4-0.7-0.6-0.9c-0.3-0.3-0.9-0.5-1.6-0.7c-0.7-0.2-1.6-0.3-2.8-0.3c0,0,0,0-0.1,0c0,0-0.1,0-0.1,0
			c-1.2,0-2.2,0.1-3,0.4c-0.8,0.2-1.3,0.7-1.7,1.4c-0.4,0.7-0.6,1.8-0.6,3.4v20.2c-2.9-3.8-8.5-11.4-16.8-22.6
			c-0.8-0.9-1.2-1.5-1.4-1.6c-0.3-0.3-0.8-0.5-1.5-0.8c-0.7-0.2-1.7-0.3-2.9-0.3c-1.2,0-2.2,0.1-3,0.4c-0.8,0.2-1.3,0.7-1.7,1.4
			c-0.4,0.7-0.6,1.8-0.6,3.4V91c0,0.9,0,1.6,0.1,2.1c0.1,0.5,0.3,1,0.6,1.6c0.6,1.1,2.1,1.6,4.6,1.6c2.6,0,4.2-0.5,4.7-1.6
			c0.3-0.6,0.5-1.1,0.6-1.6c0.1-0.4,0.1-1.2,0.1-2.1V71.1c2.9,3.7,8.8,11.6,17.9,23.8c0,0,0,0,0,0.1c0.2,0.3,0.5,0.6,0.9,0.8
			c0.2,0.1,0.3,0.2,0.5,0.3c0.4,0.2,1.1,0.3,2.1,0.3c0,0,0,0,0,0c0.2,0,0.5,0,0.7,0c0,0,0.1,0,0.1,0c0,0,0,0,0.1,0
			c0.1,0,0.1,0,0.2,0c2.6,0,4.2-0.5,4.7-1.6c0.3-0.6,0.5-1.1,0.6-1.6c0.1-0.4,0.1-1.2,0.1-2.1V71.4c3,3.8,8.8,11.6,17.7,23.4
			c0.4,0.5,0.9,0.9,1.5,1.2c0.6,0.2,1.7,0.4,3.3,0.4c2.6,0,4.2-0.5,4.7-1.6c0.3-0.6,0.5-1.1,0.6-1.6c0.1-0.4,0.1-1.2,0.1-2.1V57.4
			C174.8,56,174.7,55,174.4,54.3z"/>
		<path class="st0" d="M189.9,85.7h18.7c0.9,0,1.6,0,2.1,0.1c0.5,0.1,1,0.3,1.6,0.6c1.1,0.6,1.6,2.1,1.6,4.7c0,2.8-0.7,4.5-2.2,5
			c-0.7,0.2-1.7,0.4-3.2,0.4h-24c-2.8,0-4.5-0.8-5-2.3c-0.2-0.6-0.4-1.7-0.4-3.1V57.3c0-2.1,0.4-3.5,1.2-4.2
			c0.8-0.7,2.2-1.1,4.4-1.1h23.9c0.9,0,1.6,0,2.1,0.1c0.5,0.1,1,0.3,1.6,0.6c1.1,0.6,1.6,2.1,1.6,4.7c0,2.8-0.7,4.5-2.2,5
			c-0.7,0.2-1.7,0.4-3.2,0.4h-18.6v6.1h12c0.9,0,1.6,0,2.1,0.1c0.5,0.1,1,0.3,1.6,0.6c1.1,0.6,1.6,2.1,1.6,4.7c0,2.8-0.8,4.5-2.3,5
			c-0.7,0.2-1.7,0.4-3.2,0.4h-11.9V85.7z"/>
		<path class="st0" d="M241.3,84.7l1.1-0.8c1.4-0.8,2.3-1.2,2.9-1.2c1.3,0,2.6,1.1,4.1,3.4c0.9,1.4,1.3,2.5,1.3,3.4
			c0,0.8-0.3,1.6-0.8,2.1c-0.5,0.6-1.2,1.1-1.9,1.5c-0.7,0.4-1.4,0.9-2.1,1.3c-0.7,0.4-2,0.9-4.1,1.6c-2.1,0.6-4.1,1-6,1
			c-1.9,0-3.9-0.3-5.8-0.8c-2-0.5-4-1.4-6.1-2.5c-2.1-1.2-3.9-2.6-5.6-4.4c-1.7-1.7-3-3.9-4.1-6.6c-1.1-2.7-1.6-5.6-1.6-8.8
			c0-3.2,0.5-6,1.6-8.6c1-2.6,2.4-4.7,4-6.4c1.6-1.7,3.5-3.1,5.6-4.2c4-2.2,7.9-3.3,11.9-3.3c1.9,0,3.8,0.3,5.8,0.9
			c2,0.6,3.4,1.2,4.5,1.8l1.5,0.8c0.7,0.4,1.3,0.8,1.7,1.1c1.1,0.8,1.6,1.8,1.6,2.9c0,1.1-0.4,2.2-1.3,3.4c-1.6,2.2-3,3.3-4.2,3.3
			c-0.7,0-1.8-0.4-3.1-1.3c-1.7-1.4-4-2.1-6.8-2.1c-2.6,0-5.2,0.9-7.8,2.7c-1.2,0.9-2.2,2.1-3,3.8c-0.8,1.6-1.2,3.4-1.2,5.5
			c0,2,0.4,3.9,1.2,5.5c0.8,1.6,1.8,2.9,3.1,3.8c2.5,1.8,5,2.7,7.7,2.7c1.3,0,2.4-0.2,3.5-0.5C240,85.4,240.8,85.1,241.3,84.7z"/>
		<path class="st0" d="M258.1,51.9h33.7c1.3,0,2.2,0.2,2.8,0.5c0.6,0.3,1,0.8,1.2,1.4c0.2,0.6,0.3,1.5,0.3,2.5
			c0,1.1-0.1,1.9-0.3,2.5c-0.2,0.6-0.5,1.1-1,1.3c-0.7,0.4-1.8,0.5-3.1,0.5h-11.6v30.5c0,0.9,0,1.6-0.1,2.1c-0.1,0.4-0.2,1-0.5,1.5
			c-0.3,0.6-0.8,1-1.6,1.2c-0.8,0.2-1.8,0.4-3,0.4c-1.3,0-2.3-0.1-3-0.4c-0.7-0.2-1.3-0.7-1.6-1.2c-0.3-0.6-0.5-1.1-0.5-1.6
			c-0.1-0.5-0.1-1.2-0.1-2.1V60.7H258c-1.3,0-2.2-0.2-2.8-0.5c-0.6-0.3-1-0.8-1.2-1.4c-0.2-0.6-0.3-1.5-0.3-2.5c0-1,0.1-1.9,0.3-2.5
			c0.2-0.6,0.5-1.1,1-1.3C255.7,52.1,256.7,51.9,258.1,51.9z"/>
	</g>
	<g>
		<path class="st0" d="M55.5,21.4c2.4,2.8,3.6,6,3.6,9.5c-0.1,4-1.5,7.4-4.2,10.2c-2.7,2.7-5.9,4.1-9.8,4.1H29.2
			c-2.8,0-4.5-0.8-5-2.3c-0.2-0.7-0.4-1.7-0.4-3.2V6.1c0-1,0-1.7,0.1-2.1c0.1-0.4,0.3-1,0.6-1.6c0.6-1.1,2.1-1.6,4.7-1.6h15.3
			c3.7,0,6.8,1.3,9.3,3.9c2.6,2.6,3.9,5.8,3.9,9.5C57.8,16.7,57.1,19.2,55.5,21.4z M48.4,30.3c0-1-0.1-1.7-0.3-2.3
			c-0.2-0.6-0.6-1-1.1-1.2c-0.8-0.3-1.9-0.5-3.4-0.5c-1.5,0-2.5-0.3-3.3-0.8c-0.7-0.6-1.1-1.7-1.1-3.5c0-1.8,0.4-2.9,1.1-3.5
			c0.7-0.6,2-0.8,3.7-0.8c1.6,0,2.6-0.4,2.9-1.3c0.1-0.4,0.2-1.2,0.2-2.2c0-1-0.3-1.7-1-2.1c-0.7-0.4-1.7-0.6-3-0.6h-8.5v23h9.9
			C47.1,34.4,48.4,33,48.4,30.3z"/>
		<path class="st0" d="M63.1,6.1c0-0.9,0-1.6,0.1-2.1c0.1-0.5,0.3-1,0.6-1.6c0.6-1.1,2.1-1.6,4.7-1.6c2.8,0,4.5,0.7,5,2.2
			c0.2,0.7,0.3,1.7,0.3,3.2v33.7c0,1,0,1.7-0.1,2.1c-0.1,0.4-0.3,1-0.6,1.6c-0.6,1.1-2.1,1.6-4.7,1.6c-2.8,0-4.5-0.8-5-2.3
			c-0.2-0.6-0.4-1.7-0.4-3.1V6.1z"/>
		<path class="st0" d="M101.8,18.4h10.7c2.2,0.1,3.5,0.6,4,1.7c0.4,0.8,0.6,1.9,0.6,3.4v13.3c0,1.3-0.6,2.5-1.7,3.7
			c-3.4,3.5-8.5,5.3-15.3,5.3c-6,0-11.3-2.3-15.7-6.8c-4.4-4.5-6.7-10-6.7-16.5c0-6.4,2.3-11.8,6.8-16.1C89,2.2,94.4,0,100.5,0
			c4.8,0,9.3,1.6,13.5,4.7c1.1,0.8,1.6,1.7,1.6,2.7c0,1-0.5,2.1-1.4,3.4c-1.6,2.1-3,3.2-4.3,3.2c-0.8,0-2-0.6-3.7-1.7
			c-1.7-1.1-3.7-1.7-6.1-1.7c-3.1,0-5.8,1.1-8.2,3.2c-2.4,2.2-3.6,5-3.6,8.5c0,3.5,1.2,6.5,3.6,8.9c2.4,2.4,5.2,3.7,8.2,3.7
			c2.2,0,4.2-0.4,6-1.1v-6.6h-4.8c-1.3,0-2.1-0.2-2.7-0.5c-0.5-0.3-0.9-0.8-1-1.4c-0.2-0.6-0.2-1.5-0.2-2.5c0-1.1,0.1-1.9,0.3-2.6
			c0.2-0.6,0.5-1.1,1-1.3C99.6,18.6,100.6,18.4,101.8,18.4z"/>
	</g>
	<g>
		<g>
			<path class="st1" d="M35.9,17.8c1.7,0.9,2.6,2.4,2.6,4.5c0,2.1-0.8,3.6-2.5,4.4L8.4,43.1c-2.2,1.4-3.9,1.6-5.3,0.5
				c-0.6-0.5-1.2-1.3-1.9-2.3C0.4,39.8,0,38.8,0,38.2c0-0.6,0.1-1.2,0.4-1.7c0.5-0.7,1.4-1.5,2.8-2.3l20-11.8l-20-11.8
				C2.4,10,1.9,9.6,1.5,9.3C0.5,8.5,0.1,7.6,0.1,6.7c0-0.9,0.4-1.9,1.1-3.1c1.3-2.2,2.6-3.3,3.7-3.3c1,0,2.2,0.4,3.5,1.2L35.9,17.8z
				"/>
		</g>
	</g>
</g>
</svg>
